<svg width="600" height="400" viewBox="0 0 600 400" fill="none" xmlns="http://www.w3.org/2000/svg">
<g clip-path="url(#clip0_14_239)">
<path d="M249.337 63.232C246.969 59.712 242.169 59.2 240.505 59.2C214.073 59.2 202.233 115.136 180.281 116.864C180.281 116.928 177.657 117.12 177.401 117.184C176.889 117.312 175.417 117.888 175.417 118.528C175.417 118.72 175.673 118.72 175.993 118.72C177.017 118.72 177.337 118.592 177.465 118.592C182.713 118.592 185.849 121.792 188.409 125.312C192.185 130.624 196.345 135.68 200.441 140.736C208.121 150.272 215.097 161.984 229.625 161.984C233.081 161.984 240.377 160.96 240.377 159.616C240.313 159.424 240.121 159.36 239.801 159.36C239.097 159.36 238.009 159.68 237.817 159.744C236.281 160.128 234.809 160.32 233.337 160.32C226.553 160.32 220.153 156.416 215.929 151.488C210.297 145.024 204.985 138.304 199.673 131.584C195.641 126.464 191.353 119.488 185.081 117.44C194.041 113.536 203.385 100.864 208.505 92.224C213.177 84.416 217.657 77.632 222.777 71.04C227.385 65.728 233.273 61.12 240.377 61.12C246.265 61.12 249.081 64.832 249.081 68.928C249.081 75.968 241.465 84.608 234.745 84.608C230.905 84.608 229.049 82.432 229.049 79.616C229.049 77.76 230.713 72.96 232.697 72.96C234.041 72.96 234.617 74.176 235.897 74.176C237.689 74.176 239.417 72.768 239.417 70.656C239.417 68.992 238.137 67.648 236.345 67.648C233.337 67.648 229.305 72.64 228.025 75.648C227.449 77.056 227.129 78.4 227.129 79.744C227.129 83.52 229.689 86.528 234.233 86.528C242.489 86.528 251.001 77.312 251.001 69.056C251.001 67.008 250.489 65.024 249.337 63.232ZM185.977 86.72C187.513 80.32 190.329 72.704 191.289 70.528C193.721 64.768 197.689 61.376 200.249 60.032C200.569 59.84 200.697 59.584 200.697 59.328C200.697 58.944 200.441 58.688 199.865 58.688C199.609 58.688 199.353 58.752 198.969 58.944C198.137 59.328 193.081 61.568 187.769 61.568C178.553 61.568 169.849 58.56 160.953 58.56C158.713 58.56 156.473 58.752 154.169 59.264C143.481 61.696 134.329 72 134.329 82.752C134.777 99.008 147.193 106.368 158.585 106.368C165.369 106.368 171.769 103.744 175.097 98.944C175.353 98.56 175.417 98.048 175.417 97.6C175.417 96.576 174.649 95.424 173.241 95.424C172.409 95.424 171.513 95.936 171.193 96.768C169.081 102.272 166.009 104.384 161.017 104.384C159.737 104.384 158.393 104.256 156.921 104C153.145 103.424 139.257 99.072 139.257 81.92C139.513 66.368 153.017 60.8 157.753 60.544C158.457 60.544 159.097 60.48 159.801 60.48C169.145 60.48 177.273 63.552 185.657 63.552C187.577 63.552 189.369 63.04 191.225 63.04C191.545 63.04 191.865 63.168 191.865 63.424C191.865 63.68 191.737 63.936 191.417 64.384C188.537 68.416 184.441 77.504 182.201 84.608C179.577 92.288 177.017 100.608 174.073 108.16C168.121 123.584 163.129 125.888 156.281 125.888C149.305 125.632 146.297 121.728 146.297 118.016C146.297 114.176 149.305 111.04 152.249 111.04C153.657 111.04 154.169 111.936 155.321 111.936C156.089 111.936 156.729 111.488 156.729 110.464C156.729 109.376 155.577 109.184 154.361 109.184C152.313 109.184 142.329 109.824 142.329 118.848C142.329 123.904 148.345 127.68 155.769 127.68C163.897 127.68 173.689 123.072 178.553 110.144C180.345 105.344 183.865 95.616 185.977 86.72ZM232.692 154.752C224.692 151.104 222.452 135.552 234.74 103.616C234.74 103.616 236.404 98.112 238.196 96.576C238.324 96.448 238.388 96.384 238.388 96.32C238.388 96 237.364 95.936 237.364 95.936C234.356 96.192 232.244 97.536 230.132 103.296C230.132 103.104 230.132 102.848 230.132 102.656C230.132 96 225.204 95.232 223.796 95.232C215.604 95.232 204.916 109.504 204.916 119.488C204.916 123.456 207.156 128.32 212.34 128.32C218.1 128.32 224.116 121.216 225.652 117.376C225.652 117.376 225.652 117.376 225.844 117.376C218.804 137.92 221.94 152.64 231.22 156.288C236.276 158.272 240.819 156.864 239.924 155.264C238.644 152.896 236.34 156.416 232.692 154.752ZM213.748 124.224C211.38 123.648 210.42 121.216 210.42 118.4C210.42 116.992 210.676 115.584 210.996 114.112C212.276 108.608 218.612 97.728 224.564 97.728C227.124 97.728 228.468 99.904 228.468 103.872C228.468 109.056 223.54 124.416 215.284 124.416C214.772 124.416 214.26 124.352 213.748 124.224ZM240.372 99.392C241.716 98.624 243.124 97.92 244.34 97.92C245.428 97.92 245.812 99.008 245.812 100.032C245.812 102.016 244.724 104.64 244.724 104.64C243.572 108.544 238.004 121.408 238.004 124.288C238.004 126.4 239.028 128.512 242.548 128.512C246.644 128.512 250.484 124.8 251.892 121.216C251.956 121.088 251.956 120.96 251.956 120.832C251.956 120.576 251.764 120.192 251.316 120.192C250.868 120.192 250.548 120.64 250.548 120.64C249.268 122.624 248.18 124.992 245.62 124.992C243.828 124.992 243.316 123.776 243.316 122.752C243.316 122.496 244.468 117.248 249.076 106.24C249.844 104.32 250.676 101.952 250.676 100.032C250.676 97.792 249.396 95.296 245.364 95.296C242.484 95.296 238.324 98.112 238.324 99.328C238.324 99.456 238.26 99.904 239.028 99.904C239.348 99.904 239.796 99.776 240.372 99.392ZM250.932 90.048C252.788 90.048 254.452 88.448 254.452 86.528C254.452 84.672 252.788 83.008 250.932 83.008C249.076 83.008 247.412 84.672 247.412 86.528C247.412 88.448 249.076 90.048 250.932 90.048ZM275.784 71.296C271.368 79.104 266.888 89.088 264.008 97.472C264.008 97.472 261.448 104.832 261 106.176C258.888 112.128 253.32 128 253.192 128.384C253 128.896 253.576 128.896 253.576 128.896C253.576 128.896 257.608 128.064 258.312 127.808C258.952 127.488 259.08 126.976 259.08 126.976C259.08 126.976 260.104 122.432 262.408 115.712C264.456 110.912 268.936 110.784 269.448 110.784C271.816 110.784 272.648 112.64 272.2 114.176C271.304 117.056 270.28 120.064 269.896 121.344C268.872 124.48 269.32 128.256 273.224 128.96C277.384 129.664 281.992 123.328 282.504 122.688C283.144 121.792 283.464 120.768 283.016 120.512C282.504 120.192 281.992 120.768 281.736 121.088C280.264 123.264 278.152 125.952 275.08 125.12C272.008 124.352 275.08 118.08 276.104 114.368C277.32 110.016 271.24 109.888 270.408 109.696H270.344C273.16 108.992 276.168 104.384 277.896 102.208C279.56 99.968 282.376 97.536 283.272 97.28C284.552 96.96 285.128 97.856 284.872 98.624C284.552 99.84 282.056 99.776 281.736 102.272C281.544 104.256 283.08 105.92 285.192 105.92C288.008 105.92 289.736 102.912 289.736 100.48C289.736 97.216 286.344 96.064 286.344 96.064C282.888 94.848 280.008 96.704 274.888 103.296C269.832 109.888 266.312 109.056 265.8 108.992C265.288 108.864 265.032 108.416 265.16 107.84C265.352 107.392 265.672 106.176 265.672 106.176C266.632 102.912 267.848 99.456 268.488 97.472C271.048 90.112 275.208 79.744 279.112 72.384C287.048 74.752 295.304 76.16 303.432 76.16C309.192 76.16 314.952 75.456 320.52 73.92C320.648 73.92 320.84 73.856 320.968 73.792C331.72 70.72 343.816 62.784 343.816 52.224C343.816 51.584 343.752 51.008 343.688 50.368C342.6 41.728 332.232 38.656 324.872 38.656C303.752 38.656 287.048 53.952 276.744 69.76C272.392 68.352 265.544 66.816 260.872 66.816C254.088 66.816 244.296 70.592 244.296 78.08C244.296 83.2 249.928 86.272 255.176 86.272C263.816 86.08 266.44 83.456 266.44 81.472C266.44 80.512 265.48 79.872 264.52 79.872C264.008 79.872 263.496 80.064 263.112 80.576C261 83.392 258.952 84.928 256.2 84.928C251.912 84.928 245.96 83.392 245.96 77.76C245.96 71.616 254.216 67.968 260.808 67.968C266.12 67.968 270.92 69.632 275.784 71.296ZM320.712 72.448C320.584 72.448 320.456 72.512 320.328 72.512C314.696 74.048 309 74.752 303.304 74.752C295.24 74.752 287.24 73.344 279.816 70.912C288.584 56.512 303.304 40.448 321.032 40.448C329.352 40.448 339.08 44.032 339.08 53.76C339.08 62.592 328.776 70.08 320.712 72.448ZM307.623 95.232C303.015 95.232 296.039 98.688 296.039 102.4C296.039 104.384 297.639 105.984 299.623 105.984C301.607 105.984 303.207 104.384 303.207 102.4C303.207 101.376 302.695 100.928 302.695 99.968C302.695 97.856 305.831 96.896 307.175 96.896C310.887 96.896 311.975 99.584 311.975 102.784C311.975 105.792 310.951 109.312 310.311 111.168C308.199 117.248 304.423 126.784 297.895 126.784C295.591 126.784 293.415 124.992 293.415 120.448C293.415 117.504 294.375 113.344 296.935 107.648C296.999 107.456 297.063 107.328 297.063 107.2C297.063 106.624 296.615 106.368 296.615 106.368C295.207 105.28 294.567 103.04 294.567 102.464C293.031 102.464 289.767 110.464 289.831 110.4C289.063 112.448 288.551 114.88 288.551 117.312C288.551 123.2 291.175 128.704 298.343 128.704C308.519 128.704 314.343 117.056 314.919 114.944C316.327 111.168 316.903 108.032 316.903 105.6C316.903 96.32 309.159 95.36 309.159 95.36C308.647 95.296 308.135 95.232 307.623 95.232ZM298.023 87.808C298.023 89.536 309.543 90.496 313.575 88.768C314.599 88.32 315.623 87.616 316.263 86.656C317.287 85.056 316.903 83.392 315.495 83.072C314.407 82.752 313.191 83.328 312.295 84.288C312.295 84.288 310.631 85.76 309.671 86.272C306.727 87.872 299.175 87.232 299.175 87.232C299.175 87.232 298.023 87.104 298.023 87.808ZM347.711 100.992C347.711 100.992 348.991 97.344 350.911 96.32C351.039 96.256 351.103 96.128 351.103 96.064C351.103 95.552 350.271 95.488 350.079 95.488C348.031 95.616 344.959 95.296 342.975 100.928L338.943 112.384C337.151 118.144 329.855 125.248 326.079 125.248C324.351 125.248 323.839 123.968 323.839 122.624C323.839 120.768 324.799 118.592 324.799 118.592C327.231 112.256 331.199 103.808 331.199 99.648C331.199 95.296 327.807 94.976 327.807 94.976C327.615 94.976 327.423 94.912 327.231 94.912C323.263 94.912 318.847 101.568 318.847 101.568C318.847 101.568 318.719 101.824 318.719 102.08C318.719 102.336 318.975 102.656 319.359 102.656C319.807 102.656 320.063 102.208 320.063 102.208C320.063 102.208 323.007 98.176 325.183 98.176C326.207 98.176 326.591 98.816 326.591 99.712C326.591 103.808 318.783 117.696 318.783 123.2C318.783 125.696 319.999 128.256 324.095 128.256C329.471 128.256 334.527 122.432 336.831 119.424H337.023C334.911 126.144 333.951 132.224 333.951 137.408C333.951 149.76 339.519 157.248 348.159 157.248C350.463 157.248 352.063 156.544 352.063 155.648C352.063 154.752 351.039 154.432 350.655 154.432C349.695 154.432 348.415 155.2 346.751 155.2C341.759 155.2 338.239 149.248 338.239 139.968C338.239 131.264 340.927 118.592 347.711 100.992ZM363.316 100.032H363.06C363.188 97.92 362.42 96.256 360.436 95.68C356.916 94.592 354.036 97.28 351.348 99.968C351.156 100.16 350.644 100.736 351.028 101.248C351.028 101.248 351.604 101.952 352.244 101.376C354.292 99.456 355.764 97.792 357.428 98.56C358.132 98.88 358.644 99.712 357.876 102.016C357.3 103.616 356.34 105.792 348.724 127.744C348.532 128.256 349.108 128.256 349.108 128.256C349.108 128.256 352.564 127.424 353.204 127.168C353.908 126.912 353.972 126.336 353.972 126.336C353.972 126.336 355.956 121.664 357.876 116.096C360.82 117.184 364.148 125.376 365.684 128.064C368.18 132.288 371.828 134.976 376.692 134.016C377.588 133.888 379.252 133.504 379.828 132.736C380.276 132.096 377.972 132.48 377.844 132.544C373.62 133.376 367.604 120 366.132 117.312C365.492 116.096 364.66 115.264 363.7 114.752C375.668 113.92 378.932 104.96 379.124 104.128C381.364 97.088 375.348 95.744 373.556 95.552C371.7 95.424 367.86 95.68 363.316 100.032ZM371.188 98.304C373.364 98.944 374.644 101.056 374.324 103.296C374.004 106.112 371.7 114.112 359.028 112.896C360.5 108.608 360.628 108.288 360.692 107.968C365.044 96.256 371.188 98.304 371.188 98.304ZM413.767 179.712C414.727 178.752 414.279 177.728 413.575 177.344C411.719 176.32 410.439 178.048 407.303 176.512C398.919 171.072 394.119 161.92 394.119 150.592C394.119 144.96 395.399 138.624 397.959 132.16C397.895 133.12 397.895 134.016 397.895 134.912C397.895 141.696 399.239 147.84 403.335 152.64C407.623 158.464 415.495 160.896 423.623 160.896C447.047 160.896 473.095 137.28 473.095 113.536C473.095 100.288 464.007 89.984 447.623 89.984C437.255 90.24 426.439 94.976 417.735 102.272C413.447 105.984 409.543 110.08 406.151 114.496C407.431 110.464 408.775 106.688 409.991 103.616C409.991 103.616 411.655 98.112 413.447 96.576C413.575 96.448 413.639 96.384 413.639 96.32C413.639 96 412.615 95.936 412.615 95.936C409.607 96.192 407.495 97.536 405.383 103.296V102.656C405.383 96 400.455 95.232 399.047 95.232C390.855 95.232 380.167 109.504 380.167 119.488C380.167 123.456 382.407 128.32 387.591 128.32C393.351 128.32 399.367 121.216 400.903 117.376H401.095C400.135 120.256 399.367 123.072 398.791 125.76C394.375 134.336 392.199 142.976 392.199 150.592C392.199 162.432 397.191 172.096 405.959 177.92C405.959 177.984 411.783 181.632 413.767 179.712ZM462.279 137.536C452.935 149.952 437.639 158.976 423.623 158.976C408.391 158.976 401.927 148.672 401.927 137.152C401.927 131.584 403.015 125.504 404.551 119.808L406.023 117.76C415.879 104.192 430.983 92.352 447.687 91.904C462.471 91.904 471.175 100.8 471.175 113.536C471.175 121.28 467.655 130.176 462.279 137.536ZM390.535 124.416C387.015 124.416 385.671 121.856 385.671 118.4C385.671 116.992 385.927 115.584 386.247 114.112C387.527 108.608 393.863 97.728 399.815 97.728C402.375 97.728 403.719 99.904 403.719 103.872C403.719 109.056 398.791 124.416 390.535 124.416Z" fill="#6B5608"/>
<path d="M81.9994 173.204C69.6874 173.204 56.8354 191.852 56.8354 204.596C56.8354 206.936 57.2314 209.132 58.0594 211.004C50.4994 210.644 47.1154 205.388 47.1154 199.124C47.1154 186.164 58.5634 174.896 66.4834 174.896C67.7434 174.896 68.1754 175.184 69.0034 175.472C70.4434 175.94 70.8034 173.816 69.1834 173.816C57.7354 173.816 45.3874 186.524 45.3874 199.052C45.3874 205.46 48.8074 211.436 58.3834 211.652C59.8594 214.388 62.4154 216.224 66.4114 216.224C76.7794 216.224 85.7074 200.996 86.6794 189.944C90.4954 181.232 89.8474 173.204 81.9994 173.204ZM81.9994 173.96C88.5514 173.96 89.4874 180.44 86.7514 187.928C86.7154 181.808 84.6994 178.388 81.8914 178.388C79.2274 178.388 78.9394 180.908 79.6234 182.168C79.8754 182.6 80.2714 182.384 80.1994 182.024C80.0194 181.196 79.9114 179.864 81.4954 179.864C85.0594 179.864 85.8154 185.912 84.3754 193.076C79.5154 201.824 70.4434 210.428 59.9314 210.968C59.2114 209.168 58.9234 206.936 58.9234 204.488C58.9234 192.212 71.4874 173.96 81.9994 173.96ZM66.4114 215.468C63.3154 215.468 61.3354 213.956 60.2194 211.616C70.0474 210.968 78.7234 203.372 83.9074 195.092C81.4594 204.776 75.1954 215.468 66.4114 215.468ZM114.8 196.856C110.444 196.208 106.88 199.736 105.044 203.876C102.956 208.628 103.388 213.668 107.528 214.424C110.516 215 112.892 212.948 113.036 210.896C113.144 208.376 109.796 208.664 109.832 210.752C109.832 211.364 110.264 211.94 109.976 212.732C109.688 213.632 108.68 214.208 107.744 213.956C104.648 213.092 105.044 208.736 106.952 204.38C108.716 200.384 111.74 196.892 114.584 197.396C117.356 197.9 117.392 201.824 116.168 205.82C113.648 214.136 110.3 216.8 106.556 216.8C101.156 216.8 95.9362 208.916 92.7322 207.62C97.0522 207.62 101.876 204.92 102.56 200.996C103.388 196.316 97.1962 195.632 93.5602 199.448H93.3442C93.4882 197.468 92.4082 196.892 91.2922 196.892C89.3482 196.892 87.5482 198.692 86.6482 199.844C86.4682 200.024 86.7922 200.312 87.0442 200.06C87.6202 199.448 88.8802 198.008 90.1402 198.008C91.5082 198.008 91.8682 199.484 90.9682 201.788C88.1602 209.204 86.3242 213.848 85.9642 214.856C85.8202 215.216 86.0362 215.288 86.2522 215.216C86.3962 215.18 87.1162 214.856 87.5122 214.676C88.0162 214.46 88.1602 214.208 88.3042 213.848C88.5202 213.308 89.2042 211.724 90.4642 208.52C94.7482 209.168 98.4202 217.376 106.484 217.376C111.956 217.376 116.528 211.472 118.04 206.216C119.3 201.86 118.724 197.468 114.8 196.856ZM91.0402 206.9C91.4362 205.82 92.2642 203.408 92.4442 202.904C93.7762 199.304 96.5122 197.612 98.4562 197.648C103.136 197.828 100.472 208.124 91.0402 206.9ZM131.654 225.836C131.618 224.072 131.006 222.488 129.71 221.3C129.998 220.508 130.214 219.788 130.43 219.176L130.61 218.6C131.582 215.648 132.734 211.868 134.102 207.584C136.262 200.852 136.946 198.44 138.494 197.36C138.53 197.36 138.602 197.288 138.602 197.18C138.602 197.072 138.458 197 138.026 197C136.658 197.072 135.434 197.9 134.21 201.176C134.21 197.036 131.69 196.604 130.646 196.604C126.326 196.604 120.026 204.848 120.026 210.5C120.026 212.66 120.998 215.324 124.382 215.324C127.55 215.324 130.61 211.256 131.546 209.132H131.618C131.006 211.148 130.106 214.244 128.702 218.312L128.522 218.888L128.09 220.112C126.434 219.212 124.13 218.708 121.178 218.708C99.2544 218.708 87.3024 247.04 104.402 247.04C113.042 247.04 119.378 240.74 123.734 233.864C127.838 233.648 131.69 229.76 131.654 225.836ZM104.438 246.464C88.4184 246.464 99.9744 219.212 121.07 219.212C124.166 219.212 126.398 219.752 127.91 220.724C125.21 228.608 118.19 246.464 104.438 246.464ZM125.39 213.992C125.282 213.992 125.138 213.992 124.994 213.956C123.014 213.632 122.222 212.12 122.222 210.14C122.222 205.136 127.082 197.324 131.042 197.324C132.194 197.324 133.526 198.296 133.526 200.888C133.526 204.164 129.926 213.992 125.39 213.992ZM129.422 222.092C130.142 223.1 130.502 224.288 130.502 225.656C130.502 229.364 127.694 233.108 123.95 233.468C126.434 229.472 128.234 225.296 129.422 222.092ZM143.003 213.956C140.483 213.956 139.691 211.94 139.871 209.708V209.456C140.303 209.528 140.735 209.528 141.131 209.528C147.791 209.528 153.839 203.12 153.839 199.34C153.839 197.756 152.615 196.424 150.311 196.424C141.203 196.424 131.987 215.216 142.139 215.216C147.071 215.216 150.779 209.42 151.031 208.772C151.211 208.376 150.959 208.124 150.635 208.592C149.915 209.78 146.747 213.956 143.003 213.956ZM141.491 209.096C140.915 209.096 140.375 209.06 139.907 208.988C140.519 204.164 145.307 197.072 149.771 197.072C151.319 197.072 151.967 197.936 151.967 199.088C151.967 202.688 146.747 209.096 141.491 209.096ZM167.638 203.372C165.262 209.6 162.094 215.288 167.242 215.288C169.978 215.288 171.382 211.58 171.526 211.148C171.67 210.752 171.346 210.788 171.202 211.076C170.806 212.048 169.654 213.956 167.818 213.956C165.442 213.956 166.738 210.968 167.026 210.248C167.314 209.492 169.798 203.3 170.446 201.572C170.914 200.276 171.85 196.46 167.854 196.46C165.19 196.46 162.022 199.664 160.942 201.644H160.834C161.266 200.492 162.274 196.424 159.394 196.424C157.198 196.424 154.894 199.88 154.678 200.204C154.462 200.492 154.858 200.672 155.038 200.42C155.182 200.204 157.018 197.54 158.278 197.54C159.61 197.54 159.682 199.124 158.926 201.32C158.134 203.516 153.85 214.568 153.742 214.856C153.634 215.18 153.85 215.288 154.066 215.216C154.174 215.18 155.074 214.856 155.47 214.676C155.974 214.46 156.154 214.208 156.298 213.812C156.442 213.452 158.134 209.204 159.934 204.596C160.798 202.328 164.326 197.504 166.846 197.504C170.014 197.504 168.61 200.852 167.638 203.372ZM184.75 209.888C181.618 219.788 176.758 237.14 164.086 237.14C159.298 237.14 156.958 234.728 156.958 230.48C156.958 223.496 164.446 216.98 171.574 216.98C177.694 216.98 176.578 221.624 177.874 221.624C178.342 221.624 178.81 221.3 178.81 220.688C178.81 220.004 177.37 216.44 171.574 216.44C164.266 216.44 156.274 223.136 156.274 230.588C156.274 235.088 159.01 237.752 164.05 237.752C177.082 237.752 183.022 221.372 186.694 210.104C189.178 202.472 190.078 198.296 191.986 197.036C191.986 197.036 192.058 196.964 192.058 196.856C192.058 196.748 191.95 196.676 191.482 196.676C190.114 196.676 188.746 197.9 187.594 201.14C186.802 203.3 186.19 205.172 185.434 207.044C183.742 211.112 181.042 214.316 178.414 214.28C176.722 214.28 176.11 213.344 176.11 212.012C176.11 209.24 178.666 204.56 179.782 201.392C180.178 200.24 180.358 199.304 180.358 198.584C180.358 196.82 179.314 196.316 178.234 196.316C176.074 196.316 173.77 199.772 173.554 200.096C173.518 200.168 173.482 200.204 173.482 200.276C173.482 200.384 173.59 200.42 173.698 200.42C173.77 200.42 173.842 200.384 173.914 200.312C174.058 200.096 175.93 197.432 177.154 197.432C177.946 197.432 178.342 197.972 178.342 198.872C178.342 200.24 176.974 202.796 174.274 210.068C174.022 210.752 173.878 211.436 173.878 212.084C173.878 213.812 174.886 215.216 177.622 215.216C181.15 215.216 183.778 211.544 184.678 209.888H184.75ZM206.257 215.072C206.689 215.144 207.121 215.216 207.517 215.216C213.313 215.216 217.705 207.548 217.705 202.004C217.705 198.8 216.265 196.424 212.809 196.424C206.941 196.424 202.657 204.02 202.657 209.564C202.657 212.336 203.737 214.604 206.257 215.072ZM213.637 197.036C215.149 197.324 215.869 198.944 215.869 201.032C215.869 206.252 211.693 214.712 207.481 214.712C205.285 214.712 204.385 212.876 204.385 210.572C204.385 205.316 208.813 197 213.061 197C213.241 197 213.457 197 213.637 197.036ZM240.991 186.416C240.883 184.976 239.551 183.608 236.419 183.5C232.315 183.428 228.643 187.028 225.655 197.036C223.387 197.036 221.443 197.036 221.299 197.036C220.579 197.036 220.399 197.972 221.371 197.972C223.207 197.972 225.367 197.9 224.431 201.14C223.495 204.2 222.451 207.8 221.695 210.176C217.231 224.324 205.927 246.824 189.007 244.844C175.579 243.224 180.835 229.436 190.915 226.808C192.391 226.448 193.723 226.16 195.091 226.628C196.819 227.204 196.783 225.116 195.523 225.26C176.551 227.24 173.599 245.096 188.935 245.78C208.735 246.68 219.355 223.532 223.495 210.248C224.827 206.036 226.591 200.348 227.347 197.972C228.391 197.972 232.963 198.008 233.395 198.008C234.115 198.008 234.259 197 233.467 197C233.215 197 230.479 197 227.671 197.036C229.255 191.996 231.235 184.508 235.195 184.148C238.075 183.932 238.003 185.804 238.435 186.848C238.759 187.64 239.515 187.82 240.019 187.676C240.487 187.568 241.027 187.136 240.991 186.416ZM271.952 184.256C264.212 184.508 258.236 185.876 254.024 187.64C254.636 186.38 255.248 185.66 255.968 185.192C256.04 185.156 256.112 184.796 255.32 184.832C253.952 184.904 252.692 185.696 251.504 188.864C248.552 190.556 246.86 192.428 246.392 194.084C245.312 198.08 247.94 198.98 245.672 205.352C245.348 206.252 244.448 208.844 244.376 209.024C244.016 210.14 242.108 215.144 245.78 215.252C248.048 215.324 249.848 213.128 250.532 211.184C250.604 210.896 250.352 210.86 250.28 211.004C249.56 212.3 248.372 213.956 246.932 213.848C244.664 213.704 246.176 209.78 246.932 207.44C247.508 205.784 251.756 193.724 253.628 188.54C257.948 186.56 264.212 185.192 271.916 185.192C285.812 185.192 285.668 191.816 281.816 194.588C281.492 194.804 281.096 195.092 281.6 195.092C282.14 195.092 283.58 194.48 284.192 193.76C289.448 187.244 279.692 183.968 271.952 184.256ZM247.4 200.492C247.652 199.16 246.464 196.748 247.184 194.192C247.616 192.716 248.984 191.204 251.144 189.836C250.496 191.708 248.876 196.28 247.4 200.492ZM255.837 210.716C256.665 207.98 257.745 204.812 257.889 204.344C258.897 201.212 261.777 197.396 264.729 197.396C265.917 197.396 266.637 198.188 266.637 199.592C266.637 201.284 264.513 205.964 263.289 210.14C263.001 211.148 262.821 212.012 262.821 212.696C262.821 214.244 263.685 215.288 265.557 215.288C267.789 215.288 269.409 212.984 269.985 211.148C269.985 211.112 269.985 211.076 269.985 211.076C269.985 210.932 269.913 210.86 269.841 210.86C269.769 210.86 269.733 210.896 269.697 210.968C269.085 212.444 267.753 213.92 266.349 213.92C265.341 213.92 264.945 213.308 264.945 212.372C264.945 210.5 267.429 204.164 268.005 202.58C268.437 201.464 268.653 200.456 268.653 199.592C268.653 197.612 267.537 196.46 265.701 196.46C262.353 196.46 260.157 198.944 258.825 201.032C261.921 191.132 266.493 173.636 279.129 173.636C283.773 173.636 286.653 176.444 286.653 180.44C286.653 186.992 279.741 193.904 271.965 193.904C266.241 193.904 266.745 189.656 265.053 189.656C264.585 189.656 264.189 189.98 264.189 190.592C264.189 191.348 266.385 194.444 272.001 194.444C280.353 194.444 287.265 186.992 287.265 180.296C287.265 175.796 284.169 172.988 279.165 172.988C266.169 172.988 260.553 189.512 256.881 200.816C255.261 205.784 253.173 213.74 251.517 214.928C251.481 214.964 251.409 215.036 251.409 215.108C251.409 215.252 251.553 215.324 252.021 215.324C253.353 215.324 254.865 213.992 255.837 210.716ZM276.913 213.956C274.393 213.956 273.601 211.94 273.781 209.708V209.456C274.213 209.528 274.645 209.528 275.041 209.528C281.701 209.528 287.749 203.12 287.749 199.34C287.749 197.756 286.525 196.424 284.221 196.424C275.113 196.424 265.897 215.216 276.049 215.216C280.981 215.216 284.689 209.42 284.941 208.772C285.121 208.376 284.869 208.124 284.545 208.592C283.825 209.78 280.657 213.956 276.913 213.956ZM275.401 209.096C274.825 209.096 274.285 209.06 273.817 208.988C274.429 204.164 279.217 197.072 283.681 197.072C285.229 197.072 285.877 197.936 285.877 199.088C285.877 202.688 280.657 209.096 275.401 209.096ZM335.051 177.848C335.051 174.788 332.567 172.052 328.679 172.052C323.963 172.052 317.951 175.688 317.951 181.268C317.951 183.5 318.635 185.372 319.679 187.1C318.131 186.668 316.475 185.84 315.503 184.256C314.819 183.14 313.271 184.472 314.207 185.336C315.395 186.452 317.663 187.388 320.147 187.82C323.459 192.716 329.399 196.46 329.399 203.48C329.399 211.652 323.783 214.316 319.391 215.072C321.551 211.94 322.775 208.484 322.775 205.172C322.775 196.424 316.727 192.68 311.903 192.68C305.459 192.68 301.535 197.648 301.535 203.336C301.535 209.096 306.935 215.972 316.439 215.972C316.979 215.972 317.483 215.936 317.987 215.9C314.387 220.616 308.699 224.432 302.111 225.224C299.375 225.548 299.591 224.396 298.403 224.396C297.179 224.396 297.035 226.268 298.475 226.268C307.007 226.268 314.531 221.66 318.887 215.792C326.231 214.856 331.487 209.528 331.487 203.3C331.487 196.388 326.231 192.428 322.775 188.036C329.975 188.072 335.051 182.456 335.051 177.848ZM316.439 215.324C300.887 215.324 298.871 193.328 311.867 193.328C318.455 193.328 322.055 199.52 322.055 205.28C322.055 208.52 320.759 212.012 318.527 215.216C317.735 215.288 317.051 215.324 316.439 215.324ZM322.343 187.496C320.903 185.552 319.895 183.536 319.895 181.124C319.895 176.228 324.107 172.88 328.679 172.88C332.243 172.88 334.259 175.076 334.259 177.92C334.259 182.132 329.579 187.748 322.343 187.496ZM339.179 215.216C348.071 215.216 353.903 196.496 344.543 196.496C341.051 196.496 338.423 198.872 338.423 200.456C338.423 201.356 339.107 202.112 340.007 202.112C340.907 202.112 341.627 201.32 341.627 200.456C341.627 199.88 341.339 199.628 341.339 199.088C341.339 197.756 343.103 196.964 344.507 196.964C348.467 196.964 348.179 201.608 346.271 206.648C344.687 210.86 342.239 214.784 339.179 214.784C334.643 214.784 335.651 207.476 338.495 202.94C338.603 202.832 338.711 202.544 338.459 202.292C337.883 201.716 337.703 201.212 337.631 200.924C337.631 200.78 337.487 200.816 337.415 200.888C334.787 203.3 331.259 215.216 339.179 215.216ZM362.602 209.888H362.674C361.774 212.228 361.522 215.108 364.222 215.252C366.49 215.36 368.434 213.128 369.118 211.184C369.226 210.932 369.046 210.86 368.866 211.04C368.182 212.336 366.886 213.992 365.518 213.884C363.142 213.632 364.69 209.888 365.482 207.512C367.822 200.816 368.794 198.116 370.306 197.036C370.378 197 370.63 196.64 369.838 196.676C368.47 196.748 367.102 197.864 365.806 201.14C364.978 203.336 364.294 205.172 363.43 207.044C361.594 211.22 358.642 214.46 355.978 214.28C351.154 213.956 356.23 206.036 357.994 201.428C359.542 197.36 358.21 196.316 356.698 196.316C354.538 196.316 352.054 199.808 351.838 200.096C351.622 200.384 351.946 200.564 352.198 200.312C352.342 200.096 354.286 197.432 355.51 197.432C356.842 197.468 356.95 198.908 356.014 201.212C355.654 202.184 353.638 206.612 352.198 210.068C351.226 212.552 351.586 215.144 355.186 215.252C358.786 215.324 361.63 211.58 362.602 209.888ZM376.67 196.352C376.634 196.424 376.634 196.424 376.562 196.424C375.59 196.424 374.906 196.424 374.798 196.424C374.078 196.424 373.898 197.36 374.834 197.36C376.13 197.36 375.338 199.952 375.05 200.852C373.898 204.524 372.35 208.52 372.17 209.06C371.774 210.176 369.902 215.144 373.574 215.252C375.842 215.324 377.642 213.128 378.29 211.184C378.398 210.932 378.146 210.86 378.038 211.04C377.318 212.336 376.166 213.956 374.69 213.884C372.314 213.74 373.79 209.816 374.582 207.476C375.122 205.784 376.778 201.068 378.074 197.468C378.11 197.396 378.146 197.396 378.182 197.396C379.91 197.396 382.934 197.396 383.294 197.396C384.05 197.396 384.158 196.424 383.366 196.424C383.114 196.424 380.702 196.424 378.506 196.424C378.47 196.424 378.47 196.388 378.47 196.388C379.334 193.94 379.838 192.536 380.09 191.924C380.846 190.016 381.746 189.08 382.61 188.504C382.682 188.468 382.754 188.072 381.962 188.144C380.594 188.216 379.298 189.008 378.11 192.32C377.678 193.472 377.606 193.724 376.67 196.352ZM428.873 167.84C425.957 164.636 421.349 163.736 416.849 164.312C407.201 165.536 399.641 172.124 393.629 182.312C390.713 181.448 387.941 180.764 384.881 180.836C377.825 180.944 374.621 185.372 375.953 188.432C377.177 191.348 382.361 193.004 387.329 190.268C388.805 189.476 387.473 188.288 386.573 189.224C384.773 191.06 382.829 191.24 381.065 191.024C373.973 190.016 375.413 182.852 382.181 181.664C386.285 180.944 389.453 181.808 393.269 182.924C389.633 189.26 386.573 196.964 383.873 205.46C382.865 208.628 381.857 211.832 380.849 214.964C380.813 215.144 380.957 215.288 381.101 215.216C381.245 215.18 382.325 214.748 382.685 214.604C382.865 214.532 383.117 214.352 383.297 213.92C384.125 211.58 386.177 205.028 386.393 204.38C387.401 201.284 390.281 197.396 393.233 197.432C394.745 197.432 395.465 198.692 394.997 200.78C394.493 202.868 392.765 206.828 391.793 210.176C390.857 213.38 391.289 215 393.701 215.252C396.113 215.54 397.877 213.056 398.489 211.184C398.561 210.896 398.273 210.824 398.201 211.004C397.553 212.552 396.149 214.1 394.673 213.956C393.233 213.848 393.233 212.228 393.845 210.284C394.745 207.62 396.041 203.876 396.509 202.616C397.949 198.908 396.869 196.46 394.205 196.496C390.857 196.496 388.661 198.98 387.329 201.068C389.777 193.832 392.225 188.072 394.781 183.392C397.877 184.292 401.477 185.264 406.337 185.696C423.941 187.244 431.573 178.424 430.529 171.584C437.153 184.328 425.057 197.288 412.781 204.2C414.401 202.796 415.301 201.32 415.301 199.808C415.301 197.972 413.681 196.028 410.837 196.532C401.477 198.296 395.357 215.216 404.897 215.216C409.757 215.216 412.565 209.42 412.817 208.772C412.961 208.376 412.673 208.124 412.421 208.592C411.701 209.78 409.217 214.136 405.509 213.956C403.169 213.848 402.233 212.048 402.305 209.708C432.725 197.864 438.557 178.496 428.873 167.84ZM395.141 182.744C400.469 173.276 406.121 168.56 412.313 166.112C419.477 163.34 426.749 165.752 428.225 170.396C430.853 178.892 419.441 190.268 395.141 182.744ZM410.837 197.18C415.013 196.856 415.697 204.38 402.341 209.06C402.737 204.2 406.697 197.54 410.837 197.18ZM420.7 207.368C422.608 201.032 426.532 196.928 429.124 196.928C430.6 196.928 431.212 198.404 429.844 198.764C428.62 199.088 428.26 200.42 428.872 201.284C429.916 202.688 432.364 201.824 432.364 199.088C432.364 197.648 431.176 196.424 429.592 196.424C426.28 196.424 423.868 199.628 422.644 201.644H422.536C422.968 200.492 424.012 196.424 421.132 196.424C418.972 196.424 416.632 199.88 416.416 200.204C416.2 200.492 416.596 200.672 416.776 200.42C416.92 200.204 418.792 197.54 420.016 197.54C421.348 197.54 421.456 199.124 420.7 201.32C419.944 203.516 416.272 214.568 416.164 214.856C416.056 215.18 416.272 215.288 416.488 215.216C416.596 215.18 417.28 214.928 417.712 214.748C418.18 214.532 418.36 214.28 418.504 213.884C418.648 213.524 420.556 207.872 420.7 207.368ZM446.954 203.372C444.578 209.6 441.41 215.288 446.558 215.288C449.294 215.288 450.698 211.58 450.842 211.148C450.986 210.752 450.662 210.788 450.518 211.076C450.122 212.048 448.97 213.956 447.134 213.956C444.758 213.956 446.054 210.968 446.342 210.248C446.63 209.492 449.114 203.3 449.762 201.572C450.23 200.276 451.166 196.46 447.17 196.46C444.506 196.46 441.338 199.664 440.258 201.644H440.15C440.582 200.492 441.59 196.424 438.71 196.424C436.514 196.424 434.21 199.88 433.994 200.204C433.778 200.492 434.174 200.672 434.354 200.42C434.498 200.204 436.334 197.54 437.594 197.54C438.926 197.54 438.998 199.124 438.242 201.32C437.45 203.516 433.166 214.568 433.058 214.856C432.95 215.18 433.166 215.288 433.382 215.216C433.49 215.18 434.39 214.856 434.786 214.676C435.29 214.46 435.47 214.208 435.614 213.812C435.758 213.452 437.45 209.204 439.25 204.596C440.114 202.328 443.642 197.504 446.162 197.504C449.33 197.504 447.926 200.852 446.954 203.372ZM519.89 209.06C519.566 210.212 517.73 215.288 521.582 215.288C523.778 215.288 525.578 213.164 526.226 211.22C526.298 210.932 526.046 210.896 525.938 211.076C525.254 212.336 524.174 213.92 522.698 213.92C520.25 213.92 521.654 209.888 522.41 207.548C524.318 201.644 528.89 188.36 531.194 183.968C537.242 172.448 542.354 172.592 546.566 174.428C547.142 174.68 547.898 174.68 548.114 174.068C548.402 173.24 547.07 172.52 544.73 172.52C543.038 172.52 541.49 172.808 540.014 173.384C539.582 172.916 538.574 172.556 537.17 172.556C532.598 172.556 530.69 174.248 525.938 174.248C520.718 174.248 515.21 173.348 510.998 173.348C498.038 173.348 497.498 188.468 507.398 188.468C512.51 188.468 514.238 184.4 514.454 183.14C514.634 181.808 512.906 181.736 512.834 183.104C512.726 185.048 511.826 187.856 507.362 187.856C498.794 187.856 498.614 174.068 510.962 174.068C517.586 174.068 525.758 175.76 530.222 174.284C522.842 177.704 513.194 188 507.974 195.416C504.482 191.96 498.974 188.684 490.73 188.684C472.91 188.684 469.994 211.292 484.61 211.292C487.058 211.292 488.642 210.68 489.29 210.032C490.226 209.06 488.678 208.232 488.138 209.204C487.85 209.708 486.878 210.752 484.646 210.752C471.254 210.752 473.414 189.728 490.154 189.728C496.31 189.728 502.61 192.104 507.002 196.748C499.514 206.9 491.522 217.088 481.082 217.088C465.206 217.088 463.802 198.62 471.002 191.528C473.342 189.224 473.846 189.98 474.71 189.548C475.718 189.08 475.106 187.712 473.846 188.432C459.41 196.568 462.83 217.736 481.118 217.736C492.314 217.736 499.334 208.16 507.578 197.36C509.234 199.268 510.602 201.536 511.682 204.128C512.186 205.352 511.754 206.972 510.998 209.06C510.566 210.14 508.658 215.036 512.294 215.252C514.526 215.396 516.47 213.128 517.19 211.184C517.262 210.932 517.01 210.86 516.938 211.04C516.182 212.3 514.994 213.956 513.518 213.848C511.142 213.704 512.69 209.852 513.518 207.548C515.642 201.644 520.61 188.324 523.058 183.968C529.466 172.628 534.146 172.448 538.142 174.248C530.294 178.676 525.398 191.456 519.89 209.06ZM513.23 202.724C512.582 201.428 511.142 198.728 508.586 196.028C513.914 188.792 521.402 180.404 527.126 176.588C521.438 182.204 517.586 190.664 513.23 202.724ZM532.451 201.392C526.547 224.468 513.983 246.824 497.099 244.844C483.671 243.224 488.891 229.436 499.007 226.808C500.447 226.448 501.815 226.16 503.183 226.628C504.875 227.204 504.875 225.116 503.615 225.26C484.643 227.24 481.691 245.096 497.027 245.78C516.071 246.644 526.547 225.224 531.011 211.76L531.119 211.724C531.047 212.588 531.407 214.892 533.675 215.252C538.283 215.972 542.603 212.084 544.655 206.504C546.707 200.888 544.835 196.604 541.019 196.604C539.039 196.604 536.663 198.044 534.467 201.464C534.431 201.464 534.395 201.464 534.359 201.464C534.863 199.844 535.727 196.46 532.919 196.496C530.759 196.496 528.419 199.952 528.203 200.276C527.987 200.564 528.383 200.744 528.563 200.492C528.707 200.276 530.579 197.612 531.803 197.612C533.135 197.612 533.027 199.124 532.451 201.392ZM542.531 206.252C540.911 211.004 537.347 214.928 534.431 214.676C531.551 214.46 530.903 211.724 533.459 205.064C535.763 198.908 538.967 197.576 540.407 197.576C542.639 197.576 544.907 199.376 542.531 206.252ZM559.405 199.484C559.405 196.712 556.669 196.28 554.833 196.46C551.701 196.712 547.957 198.944 547.849 203.804C547.777 207.008 550.693 220.004 549.973 225.692C549.433 230.192 545.977 231.848 543.853 231.74C542.521 231.668 540.937 231.164 540.937 229.94C540.937 228.896 541.765 228.716 541.837 227.42C541.873 226.736 541.405 226.196 540.685 226.088C539.893 225.98 538.957 226.592 538.957 228.392C538.993 231.308 541.621 232.136 543.565 232.208C548.533 232.388 551.377 227.744 551.737 225.008C552.745 217.952 549.145 206.324 549.613 202.508C550.081 198.944 552.925 197.216 554.725 196.964C556.381 196.748 557.425 197.288 557.425 198.26C557.425 198.728 556.921 198.98 556.633 199.628C556.381 200.204 556.417 201.068 557.353 201.428C558.181 201.752 559.405 201.104 559.405 199.484Z" fill="#FFC700"/>
<path d="M227.912 291.128C225.352 291.128 178.632 291.256 177.928 291.256C177.288 291.256 176.968 291.256 176.968 291.96V297.848H171.144C171.08 294.456 170.952 291.448 170.952 291.256C170.952 290.488 170.376 289.976 169.416 289.976C168.264 289.976 163.08 290.296 162.568 290.296C162.056 290.296 161.352 290.424 161.352 291.128V299.512C161.352 299.896 161.672 300.152 162.12 300.152C162.312 300.152 165.384 300.152 168.776 300.216L168.904 305.848C168.904 305.848 163.08 306.04 162.632 306.04C162.248 306.04 161.608 306.488 161.608 307.64C161.608 308.728 161.736 356.536 161.736 357.176C161.736 357.88 163.976 357.944 163.976 357.112C163.976 355.704 164.04 308.28 164.04 308.28C164.04 308.28 170.568 308.152 170.824 308.152C171.08 308.152 171.464 307.96 171.464 307.32C171.464 307 171.336 303.736 171.208 300.216C174.92 300.28 178.376 300.28 178.632 300.28C179.016 300.28 179.592 300.088 179.592 299.576C179.592 299 179.656 293.304 179.656 293.304C179.656 293.304 227.144 293.368 227.912 293.368C228.68 293.368 228.68 291.128 227.912 291.128ZM163.336 292.6L168.712 292.344L168.776 297.848L163.464 297.784L163.336 292.6ZM227.891 293.368H258.099V291.128H227.891V293.368ZM268.365 291.128C266.573 291.128 266.637 293.176 267.277 293.176C272.013 293.176 275.149 297.592 276.173 302.584C266.893 302.648 262.989 307.896 262.989 312.312C262.989 315.576 265.101 318.392 268.749 318.392C275.853 318.392 279.053 312.184 279.053 305.656V305.016C285.773 306.744 287.501 314.68 287.629 315.32C287.757 316.024 287.949 316.152 288.461 316.152C288.909 316.152 289.933 315.64 289.933 314.872C289.933 312.248 286.925 304.184 278.797 302.776C277.901 296.696 274.253 291.128 268.365 291.128ZM276.557 306.104C276.557 311.352 274.125 316.216 268.685 316.216C266.573 316.216 265.293 314.488 265.293 312.312C265.293 308.984 268.365 304.696 276.365 304.696H276.493C276.493 305.208 276.557 305.656 276.557 306.104ZM283.725 296.824C282.637 296.824 282.253 297.656 282.253 298.36C282.253 298.744 282.445 299.448 283.277 299.448C284.173 299.448 284.749 298.68 284.749 297.784C284.749 297.272 284.237 296.824 283.725 296.824ZM289.741 317.752C288.717 317.752 288.333 318.648 288.333 319.352C288.333 319.672 288.461 320.376 289.293 320.376C290.189 320.376 290.765 319.608 290.765 318.712C290.765 318.136 290.317 317.752 289.741 317.752ZM263.053 290.552C262.029 290.552 261.645 291.384 261.645 292.088C261.645 292.472 261.773 293.112 262.669 293.112C263.501 293.112 264.077 292.408 264.077 291.512C264.077 290.936 263.629 290.552 263.053 290.552ZM329.783 291.192C323.447 291.192 321.399 287.928 321.399 284.92C321.399 282.232 322.999 279.8 324.727 279.8C324.727 279.8 324.599 281.208 326.071 281.208C326.903 281.208 327.415 280.504 327.415 279.736C327.415 278.84 326.711 277.816 324.855 277.816C321.719 277.816 319.415 281.272 319.415 284.984C319.415 287.288 320.375 289.592 322.615 291.192C317.239 291.128 310.199 291.128 305.207 291.128C298.999 291.128 296.119 294.904 296.119 298.104C296.119 300.536 297.719 302.648 300.727 302.648C302.647 302.648 303.735 301.432 303.735 300.216C303.735 298.936 303.287 298.296 302.135 298.296C300.983 298.296 300.663 298.936 300.663 299.576C300.663 300.088 300.855 300.344 300.855 300.344C300.855 300.344 300.663 300.6 300.151 300.6C298.935 300.6 298.167 299.576 298.167 298.296C298.167 296.056 300.215 292.92 305.207 292.92C313.271 292.92 322.679 293.048 329.335 293.048H329.911C330.807 293.048 330.935 291.256 329.783 291.192ZM336.183 290.872C335.479 290.872 334.903 291.384 334.903 292.152C334.903 292.92 335.415 293.624 336.055 293.624C336.759 293.624 337.847 293.368 337.847 292.472C337.847 291.64 337.079 290.872 336.183 290.872ZM342.266 293.368H372.474V291.128H342.266V293.368ZM372.5 291.128C371.732 291.128 371.732 293.368 372.5 293.368C373.268 293.368 420.756 293.304 420.756 293.304C420.756 293.304 420.82 299 420.82 299.576C420.82 300.088 421.396 300.28 421.78 300.28H429.14C429.012 303.736 428.948 307 428.948 307.32C428.948 307.96 429.332 308.152 429.588 308.152C429.844 308.152 436.372 308.28 436.372 308.28C436.372 308.28 436.436 355.704 436.436 357.112C436.436 357.944 438.676 357.88 438.676 357.176C438.676 356.536 438.804 308.728 438.804 307.64C438.804 306.488 438.164 306.04 437.78 306.04C437.332 306.04 431.508 305.848 431.508 305.848L431.572 300.216C435.028 300.216 438.1 300.152 438.292 300.152C438.74 300.152 439.06 299.896 439.06 299.512V291.128C439.06 290.424 438.356 290.296 437.844 290.296C437.332 290.296 432.148 289.976 430.996 289.976C430.036 289.976 429.46 290.488 429.46 291.256C429.46 291.448 429.332 294.456 429.204 297.848H423.444V291.96C423.444 291.256 423.124 291.256 422.484 291.256C421.78 291.256 375.06 291.128 372.5 291.128ZM431.7 292.344L437.076 292.6L436.948 297.784L431.636 297.848L431.7 292.344Z" fill="#FFC700"/>
</g>
<defs>
<clipPath id="clip0_14_239">
<rect width="600" height="400" fill="white"/>
</clipPath>
</defs>
</svg>
