<svg width="600" height="400" viewBox="0 0 600 400" fill="none" xmlns="http://www.w3.org/2000/svg">
<path d="M189.669 64.84C189.669 64.008 189.605 63.112 185.445 63.112C180.773 63.112 179.877 63.944 179.877 64.712C180.581 101.576 182.757 125.128 194.725 125.128C208.165 125.128 211.813 87.176 211.813 62.792C211.813 62.152 210.725 61.704 207.717 61.704C203.941 61.704 203.045 62.152 203.045 62.728C203.045 85.704 205.029 123.208 195.365 123.208C187.877 123.208 189.669 101.512 189.669 64.84ZM181.669 65.416L185.765 65.16C185.765 65.16 184.293 108.104 189.669 121.032C181.669 114.248 181.669 66.696 181.669 65.416ZM207.845 63.56C207.845 78.728 206.245 108.36 202.405 115.464C205.413 107.336 204.965 78.792 204.965 63.56H207.845ZM232.692 60.616C224.372 60.616 218.292 67.336 218.356 77.64C218.484 97.032 236.98 102.024 236.98 115.528C236.98 119.752 234.1 123.848 228.084 123.848C222.516 123.848 220.148 120.264 219.06 120.264C218.548 120.264 218.292 120.712 218.292 121.8C218.292 123.848 221.428 125.768 226.676 125.768C235.636 125.768 241.332 120.456 241.332 110.408C241.332 93.576 222.708 86.28 222.708 72.52C222.708 65.352 227.764 62.664 231.796 62.664C236.532 62.664 238.708 64.712 239.86 64.712C240.5 64.712 240.884 64.328 240.884 63.304C240.884 61.192 237.236 60.616 232.692 60.616ZM238.9 115.528C238.9 101.448 219.892 95.944 219.892 76.424C219.892 75.272 220.02 74.056 220.212 72.776C220.276 72.328 220.532 72.328 220.468 72.648C220.404 73.224 220.34 73.8 220.34 74.376C220.34 87.432 239.22 98.184 239.22 113.224C239.22 113.992 239.156 114.76 239.028 115.528C239.028 115.784 238.9 115.784 238.9 115.528ZM256.846 61.576C254.094 61.576 251.278 62.088 251.278 63.048C251.278 63.944 252.43 76.808 252.43 93.64C252.43 102.28 251.406 124.04 251.406 124.232C251.406 125.064 254.542 125.448 256.974 125.448C259.15 125.448 261.326 125.064 261.326 124.168C261.326 123.912 260.814 112.84 260.622 103.688C260.558 102.856 262.926 102.92 267.214 102.92C272.782 102.92 275.406 102.92 275.406 103.752C275.214 113.352 274.894 124.296 274.894 124.552C274.894 125 277.518 125.704 280.078 125.704C281.678 125.704 284.75 125.32 284.75 124.04C284.75 123.528 283.918 112.84 283.918 95.88C283.918 82.184 285.198 63.368 285.198 63.048C285.198 62.28 284.558 61.832 283.47 61.832C278.478 61.832 275.342 61.96 275.342 62.856C275.342 63.304 275.662 84.68 275.662 91.336C275.662 93.192 275.598 96.584 275.47 100.488C275.406 101 275.214 101.064 275.022 101.064H261.454C260.942 101.064 260.494 100.936 260.494 100.36V94.856C260.494 77.96 261.262 63.24 261.262 62.792C261.262 61.64 258.574 61.576 256.846 61.576ZM281.038 63.176C281.102 63.176 280.462 79.176 280.462 95.048C280.462 110.024 281.038 124.36 281.038 124.36C281.038 124.36 277.198 124.36 277.198 123.848C277.198 123.336 277.646 97.928 277.646 90.44C277.646 81.608 277.198 63.432 277.198 63.432C277.582 63.176 280.59 63.112 281.038 63.176ZM257.23 63.112C257.294 63.112 256.91 79.304 256.91 95.24C256.91 110.216 257.23 124.04 257.23 124.04C257.23 124.04 253.198 124.04 253.198 123.528C253.198 123.016 254.35 98.888 254.35 91.4C254.35 82.632 253.198 63.304 253.198 63.304C253.518 63.112 256.782 62.984 257.23 63.112ZM305.372 64.84C305.372 64.008 305.308 63.112 301.148 63.112C296.476 63.112 295.58 63.944 295.58 64.712C296.284 101.576 298.46 125.128 310.428 125.128C323.868 125.128 327.516 87.176 327.516 62.792C327.516 62.152 326.428 61.704 323.42 61.704C319.644 61.704 318.748 62.152 318.748 62.728C318.748 85.704 320.732 123.208 311.068 123.208C303.58 123.208 305.372 101.512 305.372 64.84ZM297.372 65.416L301.468 65.16C301.468 65.16 299.996 108.104 305.372 121.032C297.372 114.248 297.372 66.696 297.372 65.416ZM323.548 63.56C323.548 78.728 321.948 108.36 318.108 115.464C321.116 107.336 320.668 78.792 320.668 63.56H323.548ZM348.587 60.936C346.411 60.936 345.835 61.896 345.707 63.112C345.643 63.688 343.595 72.968 339.883 90.76C336.747 105.48 331.947 122.824 331.947 124.616C331.947 125 332.395 125.256 334.315 125.256C335.595 125.256 336.299 124.68 336.427 123.976L338.091 112.328C338.283 110.984 340.651 111.176 345.963 111.176C351.275 111.176 352.811 111.048 353.067 111.752C354.283 118.216 354.923 122.632 354.987 123.016C355.179 124.872 356.907 125.32 362.219 125.32C364.779 125.32 365.291 124.36 365.099 123.592C364.267 120.136 361.579 109.576 358.827 97.096C355.179 80.712 352.107 63.688 351.979 62.792C351.723 61.512 350.571 60.936 348.587 60.936ZM341.931 90.056L345.003 74.376C345.963 78.536 348.203 87.688 350.635 99.208C351.339 102.664 351.979 105.8 352.491 108.744C352.491 109.256 352.171 109.256 351.915 109.256H339.371C338.795 109.256 338.667 108.936 338.731 108.488C339.627 102.792 340.715 96.264 341.931 90.056ZM355.435 98.248C356.011 101.192 360.683 123.144 360.747 123.656C360.875 124.168 357.099 123.912 356.971 123.016C356.843 122.056 353.259 101.704 352.619 98.824L345.771 70.664C346.475 67.08 347.051 64.392 347.179 63.56C347.307 62.792 347.819 62.984 348.075 64.2C348.459 66.12 354.859 95.24 355.435 98.248ZM373.381 63.688C373.381 64.456 373.957 84.36 373.957 99.848C373.957 109.384 372.741 123.528 372.741 124.168C372.741 124.744 373.637 125.128 377.669 125.128C380.677 125.128 382.661 124.872 382.661 124.168C382.661 123.528 382.085 117.512 382.085 102.6C382.085 88.456 383.429 64.84 383.429 64.072C383.429 62.984 382.341 62.536 378.373 62.536C374.661 62.536 373.381 62.92 373.381 63.688ZM379.205 64.264C379.269 64.264 378.501 86.024 378.501 101.896C378.501 116.872 378.757 123.912 378.757 123.912C378.757 123.912 374.725 124.04 374.725 123.528C374.725 123.016 375.877 105.608 375.877 98.12C375.877 89.288 375.173 64.456 375.173 64.456C375.557 64.264 378.757 64.136 379.205 64.264ZM407.337 60.936C405.161 60.936 404.585 61.896 404.457 63.112C404.393 63.688 402.345 72.968 398.633 90.76C395.497 105.48 390.697 122.824 390.697 124.616C390.697 125 391.145 125.256 393.065 125.256C394.345 125.256 395.049 124.68 395.177 123.976L396.841 112.328C397.033 110.984 399.401 111.176 404.713 111.176C410.025 111.176 411.561 111.048 411.817 111.752C413.033 118.216 413.673 122.632 413.737 123.016C413.929 124.872 415.657 125.32 420.969 125.32C423.529 125.32 424.041 124.36 423.849 123.592C423.017 120.136 420.329 109.576 417.577 97.096C413.929 80.712 410.857 63.688 410.729 62.792C410.473 61.512 409.321 60.936 407.337 60.936ZM400.681 90.056L403.753 74.376C404.713 78.536 406.953 87.688 409.385 99.208C410.089 102.664 410.729 105.8 411.241 108.744C411.241 109.256 410.921 109.256 410.665 109.256H398.121C397.545 109.256 397.417 108.936 397.481 108.488C398.377 102.792 399.465 96.264 400.681 90.056ZM414.185 98.248C414.761 101.192 419.433 123.144 419.497 123.656C419.625 124.168 415.849 123.912 415.721 123.016C415.593 122.056 412.009 101.704 411.369 98.824L404.521 70.664C405.225 67.08 405.801 64.392 405.929 63.56C406.057 62.792 406.569 62.984 406.825 64.2C407.209 66.12 413.609 95.24 414.185 98.248ZM59.2061 171.768C56.9021 171.768 45.2541 171.576 44.4221 171.576C43.7821 171.576 43.7821 174.456 44.3581 174.456C44.6141 174.456 49.4141 174.136 53.7021 173.88C53.8301 178.616 54.4061 199.672 54.4061 206.136C54.4061 216.632 53.2541 234.168 53.2541 234.68C53.2541 235.32 54.8541 235.384 58.3101 235.384C61.9581 235.384 63.2381 235.32 63.2381 234.232C63.2381 233.592 62.5341 216.76 62.5341 208.952C62.5341 198.968 63.4301 178.296 63.6221 173.816C70.6621 174.008 82.5661 174.52 83.0141 174.52C83.6541 174.52 83.7181 173.944 83.7181 173.24C83.7181 172.536 83.6541 171.448 82.8861 171.448C82.3741 171.448 61.8941 171.768 59.2061 171.768ZM77.3181 181.624C77.3181 182.392 77.8941 194.36 77.8941 209.848C77.8941 219.384 76.6781 233.528 76.6781 234.168C76.6781 234.744 77.5741 235.128 81.6061 235.128C84.6141 235.128 86.5981 234.872 86.5981 234.168C86.5981 233.528 86.0221 227.512 86.0221 212.6C86.0221 198.456 87.3661 182.776 87.3661 182.008C87.3661 180.92 86.2781 180.472 82.3101 180.472C78.5981 180.472 77.3181 180.856 77.3181 181.624ZM59.6541 173.688C59.7181 173.688 58.8861 196.024 58.8861 211.896C58.8861 226.872 59.2061 233.912 59.2061 233.912C59.2061 233.912 55.1741 234.04 55.1741 233.528C55.1741 233.016 56.3261 215.608 56.3261 208.12C56.3261 199.288 55.6221 173.944 55.6221 173.944C55.7501 173.88 56.2621 173.752 56.9021 173.752C57.7981 173.688 58.5661 173.688 59.2061 173.688H59.6541ZM83.1421 182.2C83.2061 182.2 82.4381 196.024 82.4381 211.896C82.4381 226.872 82.6941 233.912 82.6941 233.912C82.6941 233.912 78.6621 234.04 78.6621 233.528C78.6621 233.016 79.8141 215.608 79.8141 208.12C79.8141 199.288 79.1101 182.392 79.1101 182.392C79.4941 182.2 82.6941 182.072 83.1421 182.2ZM121.728 172.088C121.728 171.64 121.472 171.448 120.704 171.448C120.192 171.448 109.952 171.768 104.385 171.768C101.377 171.768 99.4565 172.024 99.4565 172.536C99.4565 174.328 99.7765 199.608 99.7765 209.592C99.7765 223.864 98.8805 234.168 98.8805 234.488C98.8805 234.808 99.0085 234.936 99.5845 234.936C103.36 234.872 104.768 234.872 105.984 234.872C112.704 234.872 123.584 235.128 124.352 235.128C125.441 235.128 125.441 232.12 124.608 232.12C124.161 232.12 114.816 232.76 108.48 232.952C108.352 230.008 108.033 222.456 108.033 212.664V212.408H114.305C114.753 212.408 115.136 212.28 115.136 211.704V210.168C115.136 209.912 114.881 209.784 114.56 209.848C114.24 209.912 110.528 210.296 108.033 210.488C108.096 195.768 108.992 179 109.248 173.816C115.2 174.008 120.385 174.52 121.088 174.52C121.408 174.52 121.728 174.328 121.728 173.88V172.088ZM105.536 173.688C105.6 173.688 104.513 198.264 104.513 214.136C104.513 228.6 105.024 232.76 105.089 233.016C104.256 233.144 101.056 233.208 101.056 232.568C101.056 232.056 101.632 219 101.632 211.512C101.632 202.68 101.44 173.88 101.44 173.88C101.632 173.752 103.104 173.688 104.256 173.624C104.513 173.624 105.408 173.624 105.536 173.688ZM184.096 236.984C195.104 236.984 196.832 227.64 195.872 227.64C195.872 227.64 191.776 229.816 184.096 229.816C169.056 229.816 154.272 218.104 150.496 211.128C156.768 208.568 161.952 202.296 161.952 191.928C161.952 180.024 156.512 170.872 142.368 170.872C141.536 170.872 138.976 171.064 137.568 171.128C135.264 171.128 132.128 171.192 132.128 171.768C132.128 178.552 132.576 193.528 132.576 204.6C132.576 215.672 131.936 233.208 131.936 234.04C131.936 235 134.496 235.192 136.928 235.192C138.4 235.192 141.728 235 141.728 234.168C141.728 233.656 140.832 215.672 140.832 200.888C140.832 189.112 141.28 177.208 141.472 172.856C141.856 172.792 142.112 172.792 142.304 172.792C150.176 172.792 152.544 180.344 152.544 191.288C152.544 206.008 149.088 210.616 143.072 210.616C142.88 210.616 142.816 210.808 142.816 211.128C142.816 211.64 142.88 212.472 143.52 212.472C144.672 212.472 145.824 212.344 146.976 212.152C146.976 212.216 146.976 212.216 147.04 212.28C151.328 221.304 164.384 236.984 184.096 236.984ZM169.504 173.24C169.504 178.616 169.888 190.52 169.888 199.288C169.888 208.12 169.376 222.008 169.376 222.648C169.376 223.416 172.32 223.608 174.24 223.608C175.392 223.608 178.848 223.416 178.848 222.712C178.848 222.392 178.144 208.12 178.144 196.344C178.144 187.32 178.464 178.04 178.656 174.264C184.352 174.392 185.632 180.088 185.632 188.728C185.632 200.44 183.904 203.832 179.104 203.832C178.976 203.832 178.912 203.96 178.912 204.216C178.912 204.664 178.976 205.752 179.424 205.752C179.936 205.752 180.448 205.752 181.024 205.688C182.752 210.936 186.08 222.392 186.336 222.968C186.592 223.416 188.192 223.608 192.928 223.608C195.04 223.608 196 223.096 195.936 222.84C195.616 222.2 188.64 208.824 186.272 204.152C191.072 201.784 195.104 196.856 195.104 189.176C195.104 179.768 189.792 172.344 178.592 172.344C177.76 172.344 175.136 172.536 174.304 172.536C172.256 172.6 169.504 172.792 169.504 173.24ZM137.888 172.984C137.952 172.984 137.632 188.984 137.632 204.856C137.632 219.832 137.888 233.976 137.888 233.976C137.888 233.976 133.664 233.976 133.664 233.464C133.664 232.952 134.816 209.72 134.816 202.232C134.816 193.4 133.664 173.24 133.664 173.24C133.984 172.984 137.44 172.856 137.888 172.984ZM175.264 174.2C175.328 174.2 175.072 186.936 175.072 199.48C175.072 211.384 175.264 222.2 175.264 222.2C175.264 222.2 171.296 222.2 171.296 221.752C171.296 221.368 172.256 203.32 172.256 197.368C172.256 190.392 171.296 174.392 171.296 174.392C171.552 174.2 174.88 174.072 175.264 174.2ZM150.368 174.136C151.2 174.52 158.368 178.04 158.368 190.968C158.368 205.048 151.008 208.696 150.432 209.144C152.736 206.072 154.656 202.552 154.656 191.288C154.656 180.792 152.16 175.928 150.368 174.136ZM153.184 218.68C154.016 219.256 166.944 232.824 184.096 232.824C189.856 232.824 192.352 231.288 192.352 231.288C192.352 231.8 190.304 235.256 184.288 235.256C165.536 235.256 153.952 219.832 152.928 218.68H153.184ZM184.928 175.16C185.568 175.416 191.648 178.232 191.648 188.472C191.648 199.672 185.376 202.552 184.992 202.936C186.784 200.504 187.936 197.688 187.936 188.728C187.936 180.408 186.336 176.568 184.928 175.16ZM182.688 205.432L184.928 204.856L192.032 222.264L188.192 222.328C188.192 222.328 183.008 206.712 182.688 205.432ZM217.064 170.936C214.888 170.936 214.312 171.896 214.184 173.112C214.12 173.688 212.072 182.968 208.36 200.76C205.224 215.48 200.424 232.824 200.424 234.616C200.424 235 200.872 235.256 202.792 235.256C204.072 235.256 204.776 234.68 204.904 233.976L206.568 222.328C206.76 220.984 209.128 221.176 214.44 221.176C219.752 221.176 221.288 221.048 221.544 221.752C222.76 228.216 223.4 232.632 223.464 233.016C223.656 234.872 225.384 235.32 230.696 235.32C233.256 235.32 233.768 234.36 233.576 233.592C232.744 230.136 230.056 219.576 227.304 207.096C223.656 190.712 220.584 173.688 220.456 172.792C220.2 171.512 219.048 170.936 217.064 170.936ZM210.408 200.056L213.48 184.376C214.44 188.536 216.68 197.688 219.112 209.208C219.816 212.664 220.456 215.8 220.968 218.744C220.968 219.256 220.648 219.256 220.392 219.256H207.848C207.272 219.256 207.144 218.936 207.208 218.488C208.104 212.792 209.192 206.264 210.408 200.056ZM223.912 208.248C224.488 211.192 229.16 233.144 229.224 233.656C229.352 234.168 225.576 233.912 225.448 233.016C225.32 232.056 221.736 211.704 221.096 208.824L214.248 180.664C214.952 177.08 215.528 174.392 215.656 173.56C215.784 172.792 216.296 172.984 216.552 174.2C216.936 176.12 223.336 205.24 223.912 208.248ZM258.995 172.088C258.995 178.424 259.699 188.408 259.699 202.808C259.699 217.208 259.571 233.016 259.571 234.808C259.571 235.704 265.139 235.576 266.355 235.576C285.491 235.576 292.403 219.704 292.403 204.28C292.403 187.512 285.363 171 266.355 171C261.043 171 258.995 171.192 258.995 172.088ZM268.915 173.304C268.915 173.304 268.723 173.176 269.619 173.176C278.515 173.176 282.867 184.056 282.867 204.472C282.867 222.072 280.627 233.336 269.235 233.272C268.787 230.456 268.211 217.144 268.211 205.88C268.211 183.928 268.659 176.888 268.915 173.304ZM265.139 172.984C265.203 172.984 264.435 188.984 264.435 204.856C264.435 219.832 265.715 233.72 265.715 233.72C265.715 233.72 261.427 233.848 261.427 233.464C261.427 232.952 261.619 209.72 261.619 202.232C261.619 193.4 260.851 172.984 260.851 172.984C261.235 172.728 264.691 172.856 265.139 172.984ZM284.787 204.472C284.787 181.112 279.731 177.08 279.731 177.08C279.731 177.08 288.627 182.328 288.627 204.28C288.627 225.976 279.731 230.456 279.731 230.456C279.731 230.456 284.787 226.36 284.787 204.472ZM323.76 172.088C323.76 171.64 323.504 171.448 322.736 171.448C322.224 171.448 311.984 171.768 306.416 171.768C303.408 171.768 301.488 172.024 301.488 172.536C301.488 174.328 301.808 199.608 301.808 209.592C301.808 223.864 300.912 234.168 300.912 234.488C300.912 234.808 301.04 234.936 301.616 234.936C305.392 234.872 306.8 234.872 308.016 234.872C314.736 234.872 325.616 235.128 326.384 235.128C327.472 235.128 327.472 232.12 326.64 232.12C326.192 232.12 316.848 232.76 310.512 232.952C310.384 230.008 310.064 222.456 310.064 212.664V212.408H316.336C316.784 212.408 317.168 212.28 317.168 211.704V210.168C317.168 209.912 316.912 209.784 316.592 209.848C316.272 209.912 312.56 210.296 310.064 210.488C310.128 195.768 311.024 179 311.28 173.816C317.232 174.008 322.416 174.52 323.12 174.52C323.44 174.52 323.76 174.328 323.76 173.88V172.088ZM307.568 173.688C307.632 173.688 306.544 198.264 306.544 214.136C306.544 228.6 307.056 232.76 307.12 233.016C306.288 233.144 303.088 233.208 303.088 232.568C303.088 232.056 303.664 219 303.664 211.512C303.664 202.68 303.472 173.88 303.472 173.88C303.664 173.752 305.136 173.688 306.288 173.624C306.544 173.624 307.44 173.624 307.568 173.688ZM342.159 171.64C334.927 171.64 334.223 171.96 334.223 172.664C334.223 173.048 334.607 195.704 334.607 206.584C334.607 217.464 334.223 233.144 334.223 234.36C334.223 234.616 334.223 234.936 334.543 234.936C335.119 234.936 341.455 234.872 343.759 234.872C350.415 234.872 356.431 235.128 357.135 235.128C358.159 235.128 358.159 231.864 357.391 231.864C356.943 231.864 349.455 232.824 343.695 232.952C343.503 228.536 343.055 217.016 343.055 211.192C343.055 187.064 344.271 172.536 344.271 172.344C344.271 171.832 343.823 171.64 342.159 171.64ZM340.367 173.304C340.431 173.304 339.343 198.264 339.343 214.136C339.343 229.112 339.983 233.08 339.983 233.08C339.983 233.08 336.143 233.272 336.143 232.568C336.143 232.056 336.527 214.072 336.527 206.584C336.527 197.816 336.271 173.56 336.271 173.56C336.655 173.304 339.919 173.176 340.367 173.304ZM419.567 180.408C419.567 179.576 419.503 178.68 415.343 178.68C410.671 178.68 409.775 179.512 409.775 180.28C410.479 217.144 412.655 235.128 424.623 235.128C438.063 235.128 441.711 197.176 441.711 172.792C441.711 172.152 440.623 171.704 437.615 171.704C433.839 171.704 432.943 172.152 432.943 172.728C432.943 195.704 434.927 233.208 425.263 233.208C417.775 233.208 419.567 217.08 419.567 180.408ZM416.111 172.088C416.111 171.64 415.919 171.384 415.407 171.384C414.895 171.384 392.175 171.704 387.823 171.704H387.695C383.343 171.704 382.767 171.96 382.767 172.536C382.767 174.264 383.215 199.864 383.215 209.848C383.215 224.056 382.575 233.848 382.575 234.168C382.575 234.424 383.023 234.936 387.311 234.936C391.919 234.936 392.239 234.424 392.239 233.912C392.239 233.528 391.343 225.4 391.343 212.984V212.344H397.999C398.383 212.344 398.575 212.088 398.575 211.704V210.296C398.575 209.976 398.447 209.784 398.191 209.784C397.743 209.784 393.007 210.296 391.343 210.424C391.407 195.704 392.303 178.808 392.559 173.688C401.519 173.88 415.023 174.456 415.727 174.456C416.111 174.456 416.111 174.008 416.111 173.816V172.088ZM388.975 173.688C389.039 173.688 387.951 198.264 387.951 214.136C387.951 229.112 388.591 233.08 388.591 233.08C388.591 233.08 384.559 233.272 384.559 232.568C384.559 232.056 385.135 219 385.135 211.512C385.135 202.68 384.943 173.88 384.943 173.88C385.135 173.752 386.607 173.688 387.695 173.624H387.823C388.335 173.624 388.783 173.688 388.975 173.688ZM411.567 180.984L415.663 180.728C415.663 180.728 414.191 218.104 419.567 231.032C411.567 224.248 411.567 182.264 411.567 180.984ZM437.743 173.56C437.743 188.728 436.143 218.36 432.303 225.464C435.311 217.336 434.863 188.792 434.863 173.56H437.743ZM473.291 172.088C473.291 171.64 473.035 171.448 472.267 171.448C471.755 171.448 461.515 171.768 455.947 171.768C452.939 171.768 451.019 172.024 451.019 172.536C451.019 174.328 451.339 199.608 451.339 209.592C451.339 223.864 450.443 234.168 450.443 234.488C450.443 234.808 450.571 234.936 451.147 234.936C454.923 234.872 456.331 234.872 457.547 234.872C464.267 234.872 475.147 235.128 475.915 235.128C477.003 235.128 477.003 232.12 476.171 232.12C475.723 232.12 466.379 232.76 460.043 232.952C459.915 230.008 459.595 222.456 459.595 212.664V212.408H465.867C466.315 212.408 466.699 212.28 466.699 211.704V210.168C466.699 209.912 466.443 209.784 466.123 209.848C465.803 209.912 462.091 210.296 459.595 210.488C459.659 195.768 460.555 179 460.811 173.816C466.763 174.008 471.947 174.52 472.651 174.52C472.971 174.52 473.291 174.328 473.291 173.88V172.088ZM457.099 173.688C457.163 173.688 456.075 198.264 456.075 214.136C456.075 228.6 456.587 232.76 456.651 233.016C455.819 233.144 452.619 233.208 452.619 232.568C452.619 232.056 453.195 219 453.195 211.512C453.195 202.68 453.003 173.88 453.003 173.88C453.195 173.752 454.667 173.688 455.819 173.624C456.075 173.624 456.971 173.624 457.099 173.688ZM500.202 173.24C503.466 173.24 505.962 174.776 506.474 174.776C506.858 174.776 507.242 174.456 507.242 173.304C507.242 172.216 505.45 171.32 500.778 171.32C487.082 171.32 481.514 188.984 481.514 205.752C481.514 221.048 486.186 235.704 498.538 235.704C512.426 235.704 511.658 216.184 512.81 212.28C512.81 211.448 512.426 211 511.274 211C509.866 211 500.01 211.448 499.306 211.448C498.666 211.448 498.666 213.432 499.114 213.432C500.01 213.432 502.122 213.24 502.826 213.24C502.954 213.24 503.274 215.8 503.274 219.064C503.274 225.144 502.314 233.784 497.962 233.784C491.882 233.784 491.178 218.488 491.178 204.28C491.178 188.856 492.138 173.24 500.202 173.24ZM483.434 206.264C483.434 179.384 494.89 173.624 494.89 173.624C494.89 173.624 487.338 175.48 487.338 207.16C487.338 233.848 495.722 234.296 495.722 234.296C495.722 234.296 483.434 231.736 483.434 206.264ZM505.194 213.048C505.13 213.048 508.842 212.856 508.842 212.856C508.906 222.392 506.09 233.976 501.162 233.976C501.162 233.976 505.194 230.904 505.194 220.024C505.194 216.632 505.258 213.048 505.194 213.048ZM537.096 170.744C525.128 170.744 519.624 187 519.624 202.872C519.624 219 524.552 235.192 536.584 235.192C548.104 235.192 554.12 218.744 554.12 202.552C554.056 186.552 549.96 170.744 537.096 170.744ZM536.968 172.6C544.648 172.6 544.648 187.448 544.648 202.808C544.584 218.168 543.56 233.272 536.584 233.272C530.248 233.272 529.416 220.408 529.416 203.896C529.416 187.576 530.568 172.6 536.968 172.6ZM537.608 204.92C537.608 209.976 538.568 211.256 540.872 211.256C541.32 211.256 541.192 212.664 540.808 212.664C537.8 212.664 537.608 215.16 537.608 219.384C537.608 220.216 536.264 220.344 536.264 219.704C536.264 215.16 535.88 214.008 533.192 214.008C532.104 214.008 532.296 212.6 532.68 212.6C536.008 212.6 536.264 209.464 536.264 205.24C536.264 204.472 537.608 204.472 537.608 204.92ZM521.544 203.64C521.544 176.696 532.616 173.048 532.616 173.048C532.616 173.048 525.448 175.672 525.448 204.536C525.448 231.224 533.128 233.4 533.128 233.4C533.128 233.4 521.544 229.496 521.544 203.64ZM546.504 203.832C546.504 175.032 542.216 173.688 542.216 173.688C542.216 173.688 550.408 177.016 550.408 203.64C550.408 226.168 541.896 231.8 541.896 231.8C541.896 231.8 546.504 227.256 546.504 203.832Z" fill="black"/>
<path d="M301.363 313.28C301.043 312 300.147 312.576 299.891 313.344C299.635 314.112 296.691 322.368 296.691 322.368C296.691 322.368 286.835 322.944 285.747 322.944C284.851 322.944 284.339 324.864 285.491 325.632C285.747 325.824 291.763 329.792 291.763 329.792C291.763 329.792 288.819 336.704 288.243 338.752C287.603 340.8 289.331 340.928 290.099 340.48C290.867 340.032 296.243 336.32 298.035 335.36C299.315 335.616 302.835 341.44 303.539 342.336C304.179 343.168 304.947 342.336 304.947 340.992C304.947 339.712 305.715 330.368 305.715 330.368C305.715 330.368 311.859 327.616 313.587 326.848C315.315 326.08 314.355 324.736 313.075 324.544C311.731 324.288 303.987 322.56 303.987 322.56C303.987 322.56 301.555 314.304 301.363 313.28ZM300.467 317.888H300.723C300.723 317.888 302.451 322.88 302.835 323.904C303.219 324.992 303.603 325.056 304.563 325.184C305.587 325.312 308.723 326.016 308.723 326.016C308.723 326.016 305.651 327.616 304.883 327.872C304.179 328.128 303.667 328.448 303.603 329.792C303.539 331.136 303.091 338.048 303.091 338.048L302.899 338.112C302.899 338.112 299.251 333.632 298.931 333.248C298.675 332.864 298.227 332.096 297.075 332.992C295.859 333.824 291.315 336.704 291.315 336.704C291.315 336.704 290.995 336.576 291.123 336.384C291.187 336.256 293.491 330.752 293.619 330.368C293.811 329.984 294.259 329.024 293.363 328.64C292.531 328.256 288.755 325.504 288.755 325.504L288.883 325.376C288.883 325.376 295.603 325.056 296.499 325.056C297.331 324.992 297.907 324.928 298.227 323.776C298.547 322.688 300.467 317.888 300.467 317.888Z" fill="#FFC700"/>
</svg>
